<?xml version="1.0" ?><!DOCTYPE svg  PUBLIC '-//W3C//DTD SVG 1.1//EN'  'http://www.w3.org/Graphics/SVG/1.1/DTD/svg11.dtd'><svg enable-background="new 0 0 48 48" height="48px" id="Layer_1" version="1.1" viewBox="0 0 48 48" width="48px" xml:space="preserve" xmlns="http://www.w3.org/2000/svg" xmlns:xlink="http://www.w3.org/1999/xlink"><g id="Layer_4"><path d="M24,0C10.745,0,0,10.745,0,24s10.745,24,24,24c13.254,0,24-10.745,24-24S37.254,0,24,0z M31.035,24.017   l-1.146,1.147l-0.008-0.008L19.083,35.955l-0.002-0.002l-0.002,0.003l-2.115-2.113l9.847-9.847l-9.839-9.839l1.053-1.052   L18.02,13.1l1.057-1.057l0.005,0.005l0.005-0.005l11.442,11.442l-0.006,0.005l0.512,0.512l-0.006,0.007L31.035,24.017z" fill="#241F20"/></g></svg>